<?xml version="1.0" standalone="no"?>
<!DOCTYPE svg PUBLIC "-//W3C//DTD SVG 20010904//EN"
 "http://www.w3.org/TR/2001/REC-SVG-20010904/DTD/svg10.dtd">
<svg version="1.0" xmlns="http://www.w3.org/2000/svg"
 width="1241.000000pt" height="790.000000pt" viewBox="0 0 1241.000000 790.000000"
 preserveAspectRatio="xMidYMid meet">

<g transform="translate(0.000000,790.000000) scale(0.100000,-0.100000)"
fill="#000000" stroke="none">
<path d="M1465 7884 c-256 -23 -453 -85 -616 -194 -449 -301 -722 -820 -815
-1545 -14 -116 -17 -379 -26 -2405 -10 -2610 -5 -3617 18 -3667 37 -77 168
-83 218 -11 14 20 16 299 16 2798 0 1617 4 2865 10 2990 20 453 77 718 216
1009 221 461 552 734 937 770 138 13 1968 4 2097 -10 115 -13 240 -48 337 -95
196 -94 406 -311 546 -564 110 -200 194 -487 232 -792 34 -277 36 -488 33
-3293 -3 -2661 -2 -2771 15 -2803 43 -79 181 -81 222 -3 14 28 15 297 12 2974
-3 2129 -7 2968 -15 3037 -63 523 -164 835 -371 1147 -192 287 -438 493 -706
589 -203 72 -117 68 -1275 69 -575 1 -1063 0 -1085 -1z"/>
<path d="M9998 7730 l-316 -5 -26 -24 c-41 -39 -53 -91 -32 -146 31 -79 -18
-75 808 -75 770 0 934 -7 1057 -40 308 -85 540 -385 620 -803 34 -176 44 -368
38 -749 -6 -383 -16 -482 -72 -653 -63 -194 -195 -404 -323 -510 -83 -69 -224
-141 -317 -160 -59 -12 -283 -15 -1485 -15 -1401 0 -1415 0 -1448 -20 -95 -58
-67 -214 43 -234 19 -4 673 -9 1453 -11 1565 -4 1452 1 1587 -67 85 -43 140
-83 206 -149 186 -186 312 -499 349 -868 6 -65 10 -653 10 -1605 0 -1171 3
-1506 13 -1525 43 -84 181 -91 222 -10 23 43 22 3053 0 3226 -65 495 -261 882
-553 1090 l-63 45 53 36 c80 53 258 237 317 327 105 160 175 336 216 539 36
182 45 317 45 691 0 472 -23 669 -107 909 -137 396 -425 687 -768 777 -141 37
-586 45 -1527 29z"/>
<path d="M7026 7709 c-1772 -21 -1638 -14 -1678 -89 -17 -34 -18 -165 -16
-3787 l3 -3752 21 -28 c11 -15 40 -35 62 -43 37 -13 47 -13 84 0 22 8 51 28
62 43 l21 28 3 3680 2 3679 248 1 c136 0 941 8 1788 18 1420 16 1544 18 1568
34 82 54 80 181 -5 224 -30 16 -121 15 -2163 -8z"/>
<path d="M6405 4540 c-11 -4 -31 -20 -45 -35 -33 -36 -35 -119 -4 -162 40 -54
33 -54 858 -51 708 3 764 4 789 21 59 39 77 110 43 176 -33 63 -7 61 -853 60
-422 0 -777 -4 -788 -9z"/>
</g>
</svg>
